:SAMPLES-PER-SECOND 30
:FRAME-RANGE 1-564
:FULLY-SPECIFIED
:DEGREES
71
root  53.108 38.6954 149.25 6.3779 -77.2686 -6.29683
RightUpLeg  -14.6422 -4.47083 4.88772
RightLeg  20.1949 -5.41705 -1.2436
RightFoot  -6.30796 0.131601 -3.96133
RightToes  1.21801e-010 1.2921e-014 -6.02303e-014
Spine  -6.78144 -2.91058 6.88069
Spine1  11.2075 -3.57473 2.38637
HEad  36.2299 -0.0627205 0.112655
LeftShoulder1  1.66296 -2.38733 -23.1983
LeftArm  -5.66404 9.56385 -51.6974
LeftForeArm  40.2154 7.60352 -12.116
LeftHand  -0.0326745 4.87504 1.77771
RightShoulder  1.49031 1.13868 27.5268
RightArm  -20.6682 0.276703 46.9133
RightForeArm  62.9871 -6.01166 6.21806
RightHand  0.150254 -6.47484 -17.6095
LeftUpLeg  -17.4175 2.17116 1.92153
LeftLeg  60.6433 0.39217 1.336
LeftFoot  -0.643512 1.06316 -11.2872
LeftToes  1.70735e-010 3.74918e-011 3.68705e-011
72
root  52.3188 38.7132 149.499 6.37203 -78.9107 -6.22327
RightUpLeg  -13.4802 -4.57164 4.55235
RightLeg  20.5963 -3.87347 -0.6915
RightFoot  -8.08111 0.0381238 -3.25804
RightToes  1.21801e-010 1.2921e-014 -6.02303e-014
Spine  -6.37473 -2.5124 7.34501
Spine1  10.839 -3.14807 2.3572
HEad  36.9373 0.44506 0.212522
LeftShoulder1  1.58113 -2.08413 -23.3287
LeftArm  -6.15191 11.5014 -51.4806
LeftForeArm  40.0358 7.60419 -12.0961
LeftHand  -0.0306896 5.02256 1.54766
RightShoulder  1.54461 1.33205 27.299
RightArm  -20.1541 1.05937 47.5035
RightForeArm  62.711 -6.05617 6.43143
RightHand  0.128903 -6.32562 -17.7232
LeftUpLeg  -20.0518 2.75372 2.40963
LeftLeg  58.9937 0.530134 1.50224
LeftFoot  -2.23298 0.808177 -9.96074
LeftToes  1.70735e-010 3.74918e-011 3.68705e-011
73
root  51.5475 38.8393 149.733 5.107 -80.7878 -4.68465
RightUpLeg  -12.1636 -4.52417 3.83034
RightLeg  20.0902 -1.79706 0.125484
RightFoot  -8.83687 0.0123975 -3.29861
RightToes  1.21801e-010 1.2921e-014 -6.02303e-014
Spine  -6.03994 -2.00811 7.46177
Spine1  10.2735 -2.61801 1.99012
HEad  37.2206 1.01758 0.262638
LeftShoulder1  1.51844 -1.83928 -23.5147
LeftArm  -6.65882 13.3044 -50.9956
LeftForeArm  40.9105 7.55823 -11.9183
LeftHand  -0.0281391 4.52488 0.956833
RightShoulder  1.54384 1.34359 27.1961
RightArm  -19.5593 1.86546 48.1568
RightForeArm  62.4045 -5.95702 6.71238
RightHand  0.185045 -6.67826 -17.9462
LeftUpLeg  -21.814 1.62167 2.37319
LeftLeg  54.274 1.19845 2.27463
LeftFoot  -4.2718 0.581941 -8.99415
LeftToes  1.70735e-010 3.74918e-011 3.68705e-011
74
root  50.7922 38.8485 149.984 6.99702 -82.523 -6.24103
RightUpLeg  -11.4674 -3.45008 3.73074
RightLeg  20.5812 -0.313921 0.196252
RightFoot  -10.0081 -0.0354059 -2.77217
RightToes  1.21801e-010 1.2921e-014 -6.02303e-014
Spine  -5.77527 -1.60322 8.10571
Spine1  9.82045 -2.23895 1.77832
HEad  37.3415 1.77451 0.447027
LeftShoulder1  1.46778 -1.64161 -23.6773
LeftArm  -6.43944 15.0661 -50.6382
LeftForeArm  39.0157 7.60353 -11.9572
LeftHand  -0.0314077 4.90282 1.46918
RightShoulder  1.58081 1.4736 27.0667
RightArm  -18.7702 2.75052 48.704
RightForeArm  62.0914 -5.70245 7.15498
RightHand  0.291451 -7.32873 -18.3055
LeftUpLeg  -23.3573 0.343888 3.12961
LeftLeg  48.4077 2.17178 3.04379
LeftFoot  -5.93683 0.438779 -8.5328
LeftToes  1.70735e-010 3.74918e-011 3.68705e-011
75
root  50.059 38.9065 150.196 5.50287 -84.4161 -4.29513
RightUpLeg  -10.3058 -3.68314 3.2742
RightLeg  19.6528 1.00921 0.666186
RightFoot  -10.8897 -0.0600873 -3.42597
RightToes  1.21801e-010 1.2921e-014 -6.02303e-014
Spine  -5.71288 -1.25599 7.74063
Spine1  9.70607 -1.93502 1.394
HEad  37.1952 2.68054 0.571463
LeftShoulder1  1.38404 -1.33458 -23.8422
LeftArm  -6.69434 16.2118 -50.4197
LeftForeArm  39.8732 7.55032 -11.7264
LeftHand  -0.0303762 4.82228 1.05212
RightShoulder  1.63395 1.68739 26.7084
RightArm  -18.6974 3.37056 49.5024
RightForeArm  62.8271 -5.08563 7.16606
RightHand  0.214877 -6.85965 -18.0884
LeftUpLeg  -24.0853 -2.1926 3.80465
LeftLeg  40.5588 3.64867 3.71569
LeftFoot  -5.84566 0.456629 -8.7731
LeftToes  1.70735e-010 3.74918e-011 3.68705e-011
76
root  49.3175 38.9199 150.417 6.44134 -86.1733 -4.83396
RightUpLeg  -9.50897 -3.67337 2.90868
RightLeg  19.6202 2.56027 1.12213
RightFoot  -11.7561 -0.0937921 -3.96865
RightToes  1.21801e-010 1.2921e-014 -6.02303e-014
Spine  -5.92846 -1.00413 7.65408
Spine1  10.0642 -1.69103 0.932776
HEad  36.9348 3.49288 1.07717
LeftShoulder1  1.31442 -1.13214 -23.6216
LeftArm  -6.95121 17.0053 -50.6549
LeftForeArm  39.752 7.33314 -11.576
LeftHand  -0.0348571 4.26648 1.32565
RightShoulder  1.72414 1.97798 26.6223
RightArm  -18.4417 3.93931 49.9983
RightForeArm  62.7847 -4.62031 7.32763
RightHand  0.293172 -7.34203 -18.2859
LeftUpLeg  -24.2352 -5.5162 5.30315
LeftLeg  31.7998 4.36042 3.25288
LeftFoot  -4.72213 0.531001 -8.68228
LeftToes  1.70735e-010 3.74918e-011 3.68705e-011
77
root  48.5767 38.9115 150.628 14.2855 -87.9356 -12.1279
RightUpLeg  -8.89103 -3.81357 2.63996
RightLeg  19.5718 4.34435 1.78608
RightFoot  -12.6211 -0.133309 -4.30061
RightToes  1.21801e-010 1.2921e-014 -6.02303e-014
Spine  -5.97869 -0.646753 7.42289
Spine1  9.9463 -1.39761 0.830193
HEad  37.1159 3.98868 1.564
LeftShoulder1  1.32575 -1.18417 -23.5262
LeftArm  -6.9929 17.5318 -50.8733
LeftForeArm  39.7059 6.72901 -11.5827
LeftHand  -0.0366323 4.17142 1.44979
RightShoulder  1.71038 1.90841 26.7987
RightArm  -18.1526 4.62313 50.1091
RightForeArm  62.4123 -5.05774 7.42695
RightHand  0.314404 -7.43174 -18.6573
LeftUpLeg  -24.1157 -8.9885 7.54646
LeftLeg  22.4682 4.08071 2.17653
LeftFoot  -2.49091 0.688442 -8.69225
LeftToes  1.70735e-010 3.74918e-011 3.68705e-011
